<?xml version="1.0" standalone="no"?>
<!DOCTYPE svg PUBLIC "-//W3C//DTD SVG 20010904//EN"
 "http://www.w3.org/TR/2001/REC-SVG-20010904/DTD/svg10.dtd">
<svg version="1.0" xmlns="http://www.w3.org/2000/svg"
 width="582.000000pt" height="582.000000pt" viewBox="0 0 582.000000 582.000000"
 preserveAspectRatio="xMidYMid meet">
<metadata>
Created by potrace 1.14, written by Peter Selinger 2001-2017
</metadata>
<g transform="translate(0.000000,582.000000) scale(0.100000,-0.100000)"
fill="#000000" stroke="none">
<path d="M0 2910 l0 -2910 2910 0 2910 0 0 2910 0 2910 -2910 0 -2910 0 0
-2910z m2930 2838 c1 -36 35 -103 65 -126 15 -12 46 -27 69 -34 60 -17 63 -25
11 -32 -62 -10 -118 -59 -135 -121 -17 -60 -10 -109 51 -371 47 -203 80 -347
161 -711 17 -79 30 -144 27 -147 -2 -2 -38 1 -79 6 -73 9 -337 4 -412 -8 l-37
-6 10 33 c5 19 36 153 69 299 32 146 77 344 99 440 91 404 95 441 48 512 -21
31 -78 67 -129 82 -20 5 -15 9 32 25 70 25 116 75 126 137 7 46 24 61 24 22z
m-1130 -427 c7 -15 6 -23 -6 -35 -8 -9 -19 -16 -23 -16 -17 0 -32 30 -26 50 8
25 41 26 55 1z m792 -467 c3 -3 -4 -40 -17 -82 -13 -42 -28 -96 -34 -118 -11
-42 -11 -42 -84 -59 -359 -87 -691 -261 -904 -475 -55 -55 -103 -100 -106
-100 -4 0 -7 11 -7 25 0 30 -34 119 -61 156 -10 15 -19 33 -19 41 0 15 131
129 249 217 233 172 527 304 836 374 117 27 138 30 147 21z m801 -33 c307 -74
595 -209 858 -403 133 -97 137 -102 113 -129 -21 -23 -159 -109 -176 -109 -6
0 -54 31 -107 68 -134 95 -180 123 -306 185 -140 69 -224 103 -355 143 l-105
32 -37 103 c-41 118 -45 139 -22 139 8 0 70 -13 137 -29z m1187 -31 c0 -10 -6
-20 -12 -23 -21 -7 -38 4 -38 23 0 10 6 20 13 23 20 7 37 -4 37 -23z m-3230
-115 c0 -14 7 -41 14 -60 12 -28 21 -35 43 -35 62 0 69 -33 9 -44 -40 -8 -56
-24 -65 -68 -6 -31 -31 -52 -31 -26 0 7 -5 30 -10 50 -9 33 -15 38 -52 45 -56
11 -58 28 -4 42 42 10 46 14 56 54 16 62 18 67 30 67 5 0 10 -11 10 -25z
m3195 -76 c355 -44 494 -200 345 -388 -53 -67 -144 -130 -300 -207 -211 -105
-267 -128 -670 -271 -153 -54 -656 -211 -960 -299 -1087 -315 -1444 -436
-1920 -651 -287 -130 -456 -249 -506 -358 -30 -63 -30 -99 -2 -155 19 -36 35
-52 86 -78 49 -26 62 -38 62 -56 0 -57 -62 -53 -197 10 -158 75 -220 229 -154
380 45 101 137 192 305 302 87 56 347 182 521 251 72 29 144 58 160 66 138 61
922 308 1675 528 933 273 1455 480 1587 631 40 45 47 69 31 103 -26 54 -91 84
-239 107 -41 7 -81 16 -87 20 -16 9 -15 49 0 64 15 15 143 16 263 1z m-1047
-214 l26 -6 -31 -25 c-17 -13 -34 -35 -37 -49 -7 -29 -26 -25 -26 5 0 12 -14
27 -37 39 l-38 19 28 13 c18 8 35 28 45 53 l16 40 13 -41 c11 -31 21 -43 41
-48z m-1033 25 c4 -17 15 -32 28 -36 21 -7 21 -7 -5 -28 -14 -11 -29 -31 -33
-44 -8 -26 -25 -20 -25 9 0 11 -11 24 -25 31 -29 13 -28 29 3 43 12 5 24 22
28 37 7 34 20 29 29 -12z m-391 -101 c6 -36 23 -50 74 -64 34 -10 26 -32 -13
-39 -37 -7 -59 -32 -70 -78 -10 -40 -18 -35 -38 21 -16 46 -21 51 -59 58 -49
10 -61 30 -21 38 53 12 62 21 93 100 13 34 23 24 34 -36z m-967 6 c34 -10 66
-30 99 -62 l49 -47 -124 -7 c-128 -8 -161 -19 -148 -53 5 -14 28 -16 146 -16
132 0 141 -1 155 -22 8 -12 13 -25 10 -30 -3 -4 -47 -8 -97 -8 -68 0 -99 -4
-115 -16 -23 -16 -29 -48 -11 -59 6 -4 64 -6 130 -6 l119 2 0 -29 c0 -38 -20
-42 -190 -42 -113 0 -129 -2 -144 -19 -10 -11 -16 -28 -14 -38 3 -16 18 -18
166 -21 89 -1 162 -6 162 -11 0 -5 -9 -20 -21 -34 -20 -26 -20 -27 -186 -29
-145 -3 -167 -5 -177 -20 -20 -33 15 -52 102 -56 42 -1 88 -5 102 -8 l25 -6
-30 -16 c-49 -27 -176 -22 -246 10 -76 35 -133 88 -166 156 -24 50 -28 68 -28
147 1 77 5 99 29 152 70 153 245 235 403 188z m2713 -75 c13 -54 26 -65 85
-78 48 -10 46 -23 -8 -39 -51 -15 -60 -24 -76 -75 -16 -49 -28 -48 -41 2 -12
45 -37 65 -93 75 -47 9 -43 27 8 37 51 11 73 32 81 77 13 69 28 69 44 1z
m-630 -139 c52 -11 129 -31 170 -46 98 -36 212 -93 206 -104 -3 -5 -26 -14
-51 -21 -42 -12 -48 -11 -68 7 -33 31 -63 36 -132 23 -101 -19 -163 -70 -94
-78 45 -5 69 -12 69 -21 0 -11 -95 -39 -610 -181 -290 -80 -608 -176 -819
-246 -90 -30 -166 -53 -168 -50 -6 6 33 70 107 176 131 190 374 382 591 469
241 97 541 123 799 72z m-1329 -105 c-18 -17 -20 -17 -46 0 -26 17 -27 18 -6
26 12 4 21 14 21 22 0 11 6 9 25 -7 23 -21 24 -23 6 -41z m2840 -138 c56 -78
136 -227 162 -303 l16 -46 -104 -51 c-87 -42 -107 -49 -120 -38 -8 7 -15 18
-15 25 0 20 -121 252 -165 319 -22 33 -35 61 -30 63 9 3 199 99 201 102 1 0
25 -32 55 -71z m-3029 12 c9 -51 30 -77 69 -85 45 -10 43 -22 -8 -47 -39 -19
-49 -29 -58 -62 -10 -38 -35 -62 -35 -34 0 7 -5 30 -11 50 -9 34 -15 39 -54
49 -25 6 -45 15 -45 20 0 4 19 14 41 21 46 13 69 50 69 109 0 46 23 31 32 -21z
m3483 -76 c93 -24 160 -61 204 -111 117 -133 27 -295 -234 -423 -252 -123
-926 -358 -1500 -524 -319 -92 -624 -175 -735 -200 -371 -84 -1026 -285 -1365
-419 -272 -107 -448 -192 -589 -284 -230 -152 -332 -301 -278 -405 l19 -37
-27 14 c-176 91 42 396 451 631 199 114 506 255 739 338 41 15 85 34 98 42 37
24 23 74 -22 74 -12 0 -83 -23 -159 -51 -76 -29 -140 -49 -143 -46 -3 3 -14
38 -25 79 -22 82 -36 292 -25 380 l7 56 378 125 c207 69 498 160 647 202 148
42 298 85 334 95 291 85 430 127 520 155 215 68 300 89 312 77 8 -8 8 -12 -3
-15 -71 -21 -258 -93 -271 -105 -25 -21 -22 -41 7 -52 19 -7 53 -2 143 24 64
19 142 39 172 45 103 22 123 54 70 114 -16 19 -30 37 -30 40 0 3 15 9 32 13
30 6 36 3 73 -40 86 -97 199 -326 182 -369 -3 -8 -20 -17 -37 -21 -24 -4 -36
-1 -48 13 -29 33 -59 35 -87 7 -14 -14 -25 -36 -25 -49 0 -21 -6 -26 -37 -32
-97 -18 -530 -149 -547 -165 -23 -22 -15 -47 19 -60 52 -20 958 256 1349 412
253 100 376 175 406 247 26 63 -16 121 -107 147 -77 22 -95 44 -72 86 10 19
17 20 78 14 36 -4 93 -14 126 -22z m-738 -232 c10 -8 30 -18 46 -24 35 -13 34
-25 -2 -33 -37 -8 -65 -40 -81 -90 -18 -57 -26 -62 -35 -19 -9 52 -39 91 -83
110 l-37 15 30 16 c53 27 74 54 86 110 l13 54 22 -63 c13 -34 31 -69 41 -76z
m-3293 -49 c-28 -66 -54 -145 -75 -228 -37 -148 -39 -154 -61 -161 -12 -3 -68
-29 -125 -57 -57 -27 -106 -48 -108 -45 -6 6 51 249 80 343 14 44 36 100 48
125 l22 45 94 2 c51 1 96 4 99 7 3 4 14 6 24 6 17 0 17 -2 2 -37z m200 -128
c4 -14 10 -25 14 -25 4 0 13 -4 20 -8 9 -6 4 -18 -22 -45 -30 -32 -34 -34 -39
-17 -3 11 -17 24 -31 30 -33 12 -33 28 -1 36 15 4 28 16 31 30 8 31 20 31 28
-1z m3631 -416 c4 -55 5 -103 2 -106 -3 -3 -46 -13 -94 -23 -48 -10 -96 -19
-106 -21 -15 -4 -18 6 -20 88 l-3 92 96 35 c52 19 100 35 106 35 8 1 14 -34
19 -100z m-430 -145 c0 -48 -3 -59 -17 -62 -16 -3 -18 5 -18 56 0 32 3 62 7
66 17 17 28 -5 28 -60z m-320 -98 c-3 -34 -10 -67 -14 -74 -4 -7 -30 -19 -57
-26 -27 -7 -60 -16 -73 -21 -15 -4 -21 -3 -17 3 3 5 19 12 36 15 29 6 37 19
43 76 1 13 -5 28 -15 34 -20 13 -21 13 -238 -62 -80 -28 -185 -61 -235 -75
-93 -26 -425 -139 -454 -156 -14 -8 -14 -9 0 -15 8 -3 78 13 155 35 78 22 161
43 187 46 54 8 97 -1 97 -20 0 -16 -161 -73 -395 -140 l-159 -46 -119 30 -119
31 -94 -32 c-52 -18 -94 -36 -94 -40 0 -4 24 -24 53 -45 73 -52 100 -88 58
-77 -14 4 -24 -3 -35 -26 -12 -22 -24 -31 -41 -31 -13 0 -28 -6 -32 -14 -4 -7
-107 -45 -228 -84 -282 -90 -363 -118 -398 -138 -25 -14 -29 -14 -56 5 -68 49
-201 216 -184 232 16 14 439 148 673 213 69 19 172 48 229 65 58 17 130 35
160 41 88 18 764 205 996 275 384 117 370 113 374 97 1 -8 0 -43 -4 -76z m824
-1 c69 -35 52 -122 -37 -193 -119 -94 -396 -210 -777 -327 -272 -83 -304 -94
-407 -146 -144 -72 -404 -171 -284 -107 22 11 46 27 54 35 8 8 22 11 34 7 14
-4 18 -2 14 5 -5 7 -1 8 10 4 11 -4 15 -2 11 4 -4 6 30 33 76 61 79 49 214
168 203 180 -3 3 19 14 49 24 116 39 374 118 386 118 19 0 49 31 49 52 0 26
-38 23 -155 -13 -55 -17 -152 -46 -215 -66 -84 -25 -122 -42 -141 -62 -25 -27
-28 -27 -95 -20 -144 16 -283 11 -393 -16 -122 -30 -227 -70 -258 -98 -32 -29
-63 -97 -63 -139 0 -42 33 -94 79 -125 l34 -23 -27 0 c-15 0 -25 -4 -21 -10 3
-6 -1 -7 -10 -4 -19 8 -197 -35 -190 -46 3 -5 -4 -6 -15 -3 -11 3 -38 -2 -59
-11 -36 -14 -42 -14 -55 0 -9 8 -20 34 -26 57 -6 23 -15 55 -20 71 -6 16 -10
58 -10 93 l0 63 53 25 c153 72 439 165 690 224 84 20 393 112 487 146 152 54
783 238 890 258 38 8 107 -1 139 -18z m-4050 -192 c17 -153 19 -166 48 -287
14 -62 21 -111 16 -115 -56 -39 -196 -121 -199 -118 -15 15 -79 338 -89 447
l-7 75 104 52 c56 28 106 52 109 52 3 1 12 -47 18 -106z m321 -24 c0 -38 29
-76 70 -93 45 -18 53 -36 14 -36 -31 0 -84 -50 -84 -79 0 -37 -20 -32 -36 9
-16 40 -54 70 -89 70 -27 0 -16 15 28 35 42 20 61 46 72 98 6 31 25 28 25 -4z
m3643 -186 c-25 -131 -45 -209 -84 -330 -37 -112 -42 -123 -67 -128 -15 -4
-62 -14 -106 -25 l-78 -18 -39 41 c-32 36 -36 44 -24 57 16 18 138 279 154
331 10 32 19 38 84 63 39 16 90 39 112 52 60 36 63 33 48 -43z m-2033 -55 l64
-21 -43 -19 c-71 -30 -87 -31 -107 -11 -11 10 -32 25 -49 32 l-30 14 35 13
c48 17 57 17 130 -8z m788 -51 c3 -14 -1 -18 -20 -15 -12 2 -24 11 -26 21 -3
14 1 18 20 15 12 -2 24 -11 26 -21z m-103 -38 c16 -62 9 -77 -45 -104 -38 -19
-148 -65 -157 -65 -1 0 1 15 4 34 7 45 -9 72 -53 86 -64 22 -114 -14 -114 -81
0 -40 24 -69 59 -70 23 -1 22 -2 -8 -11 -98 -28 -160 65 -95 142 38 45 63 53
359 113 33 7 39 2 50 -44z m225 42 c0 -5 -7 -12 -16 -15 -22 -9 -24 -8 -24 9
0 8 9 15 20 15 11 0 20 -4 20 -9z m-110 -56 c0 -15 -18 -30 -27 -22 -2 3 -2
15 2 26 7 23 25 19 25 -4z m793 -46 c7 -11 -2 -38 -32 -102 -23 -48 -45 -87
-50 -87 -19 0 -71 23 -71 31 0 17 62 134 83 157 23 25 54 26 70 1z m-1165 -31
c30 -30 -11 -85 -44 -57 -25 21 -11 69 21 69 6 0 16 -5 23 -12z m702 -44 c0
-21 -69 -144 -108 -192 -102 -126 -203 -202 -335 -253 -84 -32 -124 -34 -69
-3 146 82 336 259 396 366 21 38 45 72 54 78 19 10 62 13 62 4z m-2470 -29 c0
-9 9 -15 25 -15 14 0 25 -4 25 -10 0 -5 -11 -12 -25 -16 -18 -4 -25 -13 -25
-29 0 -13 -4 -27 -10 -30 -6 -4 -10 5 -10 20 0 20 -7 28 -30 36 -16 6 -30 15
-30 20 0 5 14 9 30 9 20 0 30 5 30 15 0 8 5 15 10 15 6 0 10 -7 10 -15z m1138
-73 c6 -42 14 -86 18 -96 11 -29 -28 -16 -43 15 -21 43 -28 139 -12 150 24 15
26 11 37 -69z m-106 -54 c9 -46 19 -90 23 -99 5 -13 -21 -23 -152 -58 -166
-45 -550 -154 -691 -197 -167 -51 -54 -81 133 -36 44 11 133 34 199 52 89 24
121 29 130 20 16 -17 -11 -34 -102 -64 -237 -78 -513 -130 -663 -124 -62 3
-82 -1 -124 -22 -27 -14 -50 -32 -50 -40 0 -8 16 -23 35 -33 l35 -17 -95 3
c-136 5 -175 36 -110 90 33 28 53 36 262 103 157 50 208 74 208 99 0 18 -21
19 -70 5 -305 -90 -408 -110 -478 -91 -81 22 -79 87 6 161 74 66 269 170 317
170 37 0 8 -32 -62 -70 -94 -50 -168 -102 -183 -129 -8 -16 -6 -24 12 -41 19
-18 30 -20 68 -15 60 9 67 15 40 35 l-22 17 28 20 c64 45 417 188 441 179 33
-13 7 -36 -89 -78 -80 -34 -103 -49 -103 -64 0 -39 51 -25 740 210 154 52 285
95 291 95 5 1 17 -36 26 -81z m829 15 c-19 -8 -40 -12 -47 -9 -8 3 -14 1 -14
-4 0 -6 -8 -10 -17 -10 -14 0 -13 3 5 16 12 8 26 13 31 9 5 -3 12 -1 16 4 3 6
12 8 20 4 8 -3 15 0 15 7 0 6 5 8 12 4 8 -5 1 -13 -21 -21z m905 -18 c107 -31
188 -112 231 -229 22 -59 21 -169 -2 -241 -25 -79 -115 -173 -189 -198 -71
-24 -181 -22 -253 5 -71 26 -173 123 -205 195 -31 69 -31 198 1 268 38 87 143
176 241 206 42 12 123 10 176 -6z m-1089 -31 c-3 -3 -12 -4 -19 -1 -8 3 -5 6
6 6 11 1 17 -2 13 -5z m-2077 -43 c-1 -3 -46 -36 -101 -73 l-100 -67 -10 26
c-5 14 -8 30 -6 36 1 5 45 33 97 63 87 50 96 53 107 37 7 -9 13 -19 13 -22z
m2387 2 c13 -34 -95 -90 -265 -138 -64 -18 -89 -36 -77 -56 5 -7 27 -9 71 -4
39 4 64 3 64 -3 0 -16 -63 -41 -176 -68 -148 -36 -319 -38 -447 -6 -91 23
-247 80 -247 91 0 3 48 22 106 41 89 29 108 33 125 22 17 -11 25 -10 46 3 24
16 26 16 40 -4 13 -19 16 -20 43 -6 25 13 29 13 41 -1 12 -15 5 -80 -15 -125
-10 -23 14 -30 58 -18 22 6 74 45 141 106 l107 95 111 29 c62 15 132 35 157
43 63 20 109 20 117 -1z m-833 -19 c3 -8 2 -12 -4 -9 -6 3 -10 10 -10 16 0 14
7 11 14 -7z m2294 -6 c17 -17 15 -42 -5 -61 -10 -8 -83 -33 -163 -55 -142 -39
-184 -47 -174 -31 3 5 -4 16 -16 26 -39 34 -26 49 63 73 45 12 111 30 147 40
77 22 131 25 148 8z m-1996 -100 c-34 -33 -65 -58 -68 -56 -2 3 1 26 8 52 11
42 16 47 53 57 22 5 45 11 50 13 27 8 14 -11 -43 -66z m788 -146 c0 -38 -1
-39 -53 -55 -66 -21 -81 -21 -97 -1 -19 21 6 43 78 71 75 28 72 29 72 -15z
m-1230 -138 c15 -59 15 -59 70 -78 30 -11 57 -21 60 -23 8 -7 -22 -21 -61 -27
-37 -6 -69 -35 -69 -64 0 -7 -7 -29 -16 -50 -18 -43 -27 -34 -39 35 -8 49 -23
64 -79 78 -54 14 -52 35 6 52 52 15 62 28 73 88 4 22 10 44 12 48 12 20 29 -4
43 -59z m595 -205 l-8 -222 52 7 c155 20 397 101 580 192 l124 62 46 -33 c59
-42 133 -78 194 -95 81 -22 75 -35 -53 -118 -297 -193 -636 -308 -990 -337
-41 -3 -92 -8 -112 -11 -22 -3 -38 -2 -38 4 0 6 16 67 34 136 19 69 51 199 70
288 63 295 78 348 93 348 13 0 14 -31 8 -221z m-145 198 c13 -2 9 -31 -28
-184 -24 -101 -47 -183 -51 -183 -6 0 -102 345 -101 365 0 9 123 10 180 2z
m1735 -90 c101 -54 132 -86 119 -121 -13 -35 -48 -28 -160 30 -60 32 -110 58
-112 60 -6 4 38 84 46 84 4 0 52 -24 107 -53z m-1260 21 c6 -13 20 -27 33 -33
25 -11 30 -35 7 -35 -8 0 -24 -14 -37 -30 l-22 -31 -14 26 c-7 14 -24 30 -38
35 -32 13 -30 23 7 37 17 7 33 21 36 32 7 27 16 26 28 -1z m-1716 -27 c44 -32
289 -156 381 -194 149 -61 343 -107 619 -145 49 -6 55 -10 63 -37 5 -16 24
-86 42 -154 l34 -124 -132 6 c-357 16 -749 149 -1054 357 -91 62 -133 94 -251
198 l-72 62 58 0 c32 1 105 11 163 24 58 13 109 24 113 25 5 0 21 -8 36 -18z
m2604 -237 c20 -61 20 -61 -7 -66 -26 -4 -67 99 -45 113 26 16 34 9 52 -47z"/>
<path d="M744 3986 c-10 -25 0 -61 17 -64 21 -4 31 49 12 66 -16 16 -22 15
-29 -2z"/>
<path d="M809 3861 l-24 -19 37 11 c20 6 34 15 32 19 -8 13 -20 9 -45 -11z"/>
<path d="M3001 4020 c-71 -17 -106 -40 -98 -65 6 -17 86 -17 166 0 96 22 113
31 109 58 -3 19 -10 22 -53 24 -27 1 -83 -6 -124 -17z"/>
<path d="M3876 3409 c-22 -17 -145 -59 -323 -110 -59 -18 -83 -67 -27 -56 40
7 31 -30 -11 -47 -24 -10 -33 -20 -29 -30 13 -34 61 -32 194 9 41 13 128 40
192 60 65 20 124 43 133 51 8 9 15 32 15 53 0 75 -85 117 -144 70z"/>
<path d="M4164 1784 c-104 -38 -174 -141 -174 -253 1 -104 47 -185 139 -239
39 -23 57 -27 121 -27 64 1 83 5 129 30 63 35 105 87 126 158 27 93 16 159
-41 239 -60 86 -201 129 -300 92z m155 -75 c20 -7 42 -27 57 -51 14 -21 29
-36 33 -33 13 7 21 -20 21 -71 0 -42 -1 -44 -21 -32 -18 11 -23 10 -33 -6 -6
-11 -25 -35 -41 -53 -56 -63 -159 -52 -205 22 -11 18 -30 35 -41 38 -20 5 -21
11 -17 61 3 41 11 63 28 81 44 47 150 68 219 44z m79 -290 c-2 -6 -8 -10 -13
-10 -5 0 -11 4 -13 10 -2 6 4 11 13 11 9 0 15 -5 13 -11z m-268 -8 c0 -12 -20
-25 -27 -18 -7 7 6 27 18 27 5 0 9 -4 9 -9z m200 -51 c0 -5 -7 -10 -15 -10 -8
0 -15 5 -15 10 0 6 7 10 15 10 8 0 15 -4 15 -10z m-110 -4 c0 -11 -19 -15 -25
-6 -3 5 1 10 9 10 9 0 16 -2 16 -4z"/>
<path d="M4649 1316 c6 -8 22 -16 34 -20 21 -5 21 -4 -3 14 -29 23 -48 26 -31
6z"/>
<path d="M4346 1102 c-4 -7 2 -22 13 -34 16 -16 21 -18 21 -7 0 24 -26 54 -34
41z"/>
</g>
</svg>
